<?xml version="1.0" encoding="UTF-8"?>
<!-- Generator: Adobe Illustrator 27.6.1, SVG Export Plug-In . SVG Version: 6.00 Build 0)  -->
<svg xmlns="http://www.w3.org/2000/svg" xmlns:xlink="http://www.w3.org/1999/xlink" version="1.1" id="Calque_1" x="0px" y="0px" viewBox="0 0 497 221.7" style="enable-background:new 0 0 497 221.7;" xml:space="preserve">
<style type="text/css">
	.st0{fill:#12100B;}
</style>
<g>
	<path class="st0" d="M281.7,63.8h126.3c0,0-3.2,31.2-33.2,32.8c-30,1.6-72.4,0-72.4,0s-37.9,0.9-51,27.5   c-13.1,26.7-46.2,97.5-46.2,97.5h66.3l24.6-52.6c0,0,5.4-12.1,20.4-11.5c15,0.6,83.5,0.3,83.5,0.3s35.4-4,49.4-30.4   s46.9-94.6,46.9-94.6s6.4-29.8-19.5-30c-25.8-0.2-119.6,0-119.6,0s-27.1-0.6-44,14.4S288,44.1,281.7,63.8z"></path>
	<path class="st0" d="M215.3,157.8H89c0,0,3.2-31.2,33.2-32.8c30-1.6,72.4,0,72.4,0s37.9-0.9,51-27.5C258.7,70.8,291.8,0,291.8,0   h-66.3L201,52.6c0,0-5.4,12.1-20.4,11.5c-15-0.6-83.5-0.3-83.5-0.3s-35.4,4-49.4,30.4S0.7,188.8,0.7,188.8s-6.4,29.8,19.5,30   s119.6,0,119.6,0s27.1,0.6,44-14.4C200.6,189.4,208.9,177.6,215.3,157.8z"></path>
</g>
</svg>
